<svg width="158" height="71" viewBox="0 0 158 71" fill="none" xmlns="http://www.w3.org/2000/svg">
<g clip-path="url(#clip0_7703_1012)">
<path d="M0.000485759 45.1729V3.25846C-0.00978196 2.82814 0.0675566 2.40026 0.227826 2.0012C0.388095 1.60213 0.627868 1.24032 0.93234 0.938076C1.22278 0.636099 1.5715 0.397126 1.95708 0.235815C2.34266 0.0745037 2.75692 -0.00574888 3.17443 4.90405e-05H21.8682C31.5467 4.90405e-05 38.5861 1.94663 42.9863 5.83974C47.3865 9.73286 49.5888 15.8452 49.5935 24.1769C49.5935 32.4897 47.3911 38.588 42.9863 42.4717C38.5814 46.3554 31.5421 48.2973 21.8682 48.2973H3.17443C2.76044 48.3046 2.34912 48.2292 1.96426 48.0754C1.57941 47.9217 1.22869 47.6926 0.93234 47.4016C0.626783 47.1195 0.385322 46.7744 0.22449 46.3897C0.0636579 46.0051 -0.0127213 45.59 0.000485759 45.1729ZM12.6125 38.7408H21.5039C27.5016 38.7408 31.5817 37.6406 33.7445 35.4401C35.9072 33.2396 36.9885 29.4782 36.9885 24.1557C36.9885 18.8238 35.9072 15.0624 33.7445 12.8713C31.5817 10.6803 27.5016 9.57536 21.5039 9.55655H12.6125V38.7408Z" fill="#1F1B1C"/>
<path d="M67.6143 36.6179V36.6532H73.2896C73.8992 36.6532 74.4947 36.6532 75.0833 36.6179H67.6143Z" fill="#84C551"/>
<path d="M109.206 6.36151V3.19484C109.192 2.77157 109.265 2.34996 109.42 1.95613C109.574 1.5623 109.808 1.2046 110.105 0.905149C110.403 0.605695 110.758 0.370856 111.149 0.215156C111.54 0.0594561 111.959 -0.0138047 112.38 -7.66519e-05H154.819C155.24 -0.0148477 155.659 0.0577157 156.051 0.213047C156.443 0.368378 156.798 0.603155 157.096 0.902825C157.394 1.20249 157.627 1.56062 157.781 1.95493C157.936 2.34923 158.008 2.7713 157.993 3.19484V6.36151C158.006 6.78165 157.933 7.19993 157.778 7.59054C157.624 7.98114 157.392 8.33578 157.096 8.63252C156.795 8.92661 156.438 9.15682 156.047 9.30947C155.656 9.46212 155.238 9.53408 154.819 9.52113H139.902V45.1728C139.91 45.5838 139.833 45.9919 139.675 46.371C139.517 46.75 139.281 47.0914 138.984 47.3732C138.692 47.6647 138.345 47.8941 137.964 48.048C137.582 48.2018 137.174 48.2769 136.763 48.2689H130.457C130.045 48.2775 129.635 48.2026 129.253 48.0488C128.87 47.8949 128.522 47.6652 128.229 47.3732C127.932 47.0914 127.696 46.75 127.538 46.371C127.38 45.9919 127.303 45.5838 127.311 45.1728V9.54231H112.394C111.975 9.55511 111.559 9.48302 111.169 9.33035C110.779 9.17768 110.423 8.94754 110.124 8.65366C109.82 8.35706 109.582 7.99994 109.424 7.60521C109.266 7.21049 109.192 6.78686 109.206 6.36151Z" fill="#1F1B1C"/>
<path d="M0.938933 67.7275V58.6717C0.937469 58.5777 0.954672 58.4844 0.989567 58.3972C1.02446 58.31 1.07637 58.2307 1.14215 58.164C1.20513 58.0996 1.28046 58.0489 1.36359 58.015C1.44673 57.981 1.53587 57.9645 1.62557 57.9665H3.04093C3.12951 57.9651 3.21748 57.9818 3.2994 58.0158C3.38132 58.0498 3.45551 58.1002 3.51742 58.164C3.5832 58.2307 3.63502 58.31 3.66992 58.3972C3.70481 58.4844 3.72202 58.5777 3.72055 58.6717V66.3381H10.0265C10.1169 66.3357 10.2068 66.3527 10.2901 66.388C10.3735 66.4233 10.4485 66.476 10.51 66.5426C10.6352 66.6734 10.7054 66.8477 10.7062 67.0293V67.7345C10.7037 67.9137 10.6336 68.0851 10.51 68.2141C10.4471 68.2784 10.3717 68.3291 10.2885 68.3631C10.2054 68.397 10.1162 68.4135 10.0265 68.4116H1.6396C1.46017 68.4127 1.28716 68.3446 1.15618 68.2211C1.08497 68.161 1.02833 68.0853 0.990679 67.9997C0.953031 67.9141 0.935337 67.821 0.938933 67.7275Z" fill="#84C551"/>
<path d="M12.3598 67.4805C11.6389 66.6244 11.2432 65.5384 11.2432 64.4161C11.2432 63.2938 11.6389 62.2079 12.3598 61.3517C13.249 60.6609 14.3405 60.2861 15.4637 60.2861C16.587 60.2861 17.6786 60.6609 18.5677 61.3517C18.9537 61.742 19.2526 62.2105 19.4447 62.7261C19.6368 63.2417 19.7176 63.7926 19.6818 64.3421V64.7581C19.6838 64.8788 19.6384 64.9954 19.5556 65.0826C19.5134 65.1249 19.463 65.1579 19.4076 65.1798C19.3521 65.2016 19.2928 65.2117 19.2333 65.2095H13.7891C13.7937 65.691 13.976 66.1536 14.3006 66.5073C14.7001 66.816 15.2004 66.962 15.702 66.9163C15.9388 66.9446 16.1791 66.9202 16.4055 66.8447C16.632 66.7691 16.8391 66.6442 17.0122 66.479C17.1159 66.3438 17.2484 66.2336 17.4 66.1567C17.5516 66.0798 17.7183 66.0381 17.888 66.0347H18.9671C19.0266 66.0325 19.0859 66.0426 19.1414 66.0645C19.1968 66.0863 19.2471 66.1194 19.2894 66.1617C19.331 66.2044 19.3636 66.2552 19.3853 66.3109C19.407 66.3667 19.4173 66.4262 19.4155 66.4861C19.4155 67.8966 18.0983 68.6019 15.4637 68.6019C14.3231 68.6518 13.2086 68.2492 12.3598 67.4805ZM13.7612 63.6438H17.1243C17.0753 62.5013 16.5217 61.93 15.4497 61.93C14.3777 61.93 13.8452 62.5013 13.7821 63.6438H13.7612Z" fill="#84C551"/>
<path d="M24.7618 66.8176L25.7568 66.7259H26.0231C26.0825 66.7241 26.1416 66.7344 26.197 66.7563C26.2524 66.7781 26.3029 66.8109 26.3453 66.8529C26.3868 66.8943 26.4194 66.9438 26.4411 66.9984C26.4627 67.0529 26.4731 67.1114 26.4714 67.1702V67.953C26.4707 68.0063 26.4592 68.0588 26.4375 68.1073C26.4158 68.1559 26.3845 68.1994 26.3453 68.2352C26.2585 68.3222 26.1449 68.3769 26.0231 68.3903C25.3869 68.5009 24.7417 68.5506 24.0962 68.5385C22.0316 68.5385 20.9969 67.4476 20.9923 65.266V58.4107C20.9902 58.2901 21.0356 58.1735 21.1184 58.0863C21.1599 58.0455 21.2093 58.0138 21.2636 57.9932C21.3178 57.9725 21.3757 57.9634 21.4337 57.9664H23.0523C23.1102 57.9634 23.168 57.9725 23.2223 57.9932C23.2765 58.0138 23.326 58.0455 23.3675 58.0863C23.4503 58.1735 23.4956 58.2901 23.4936 58.4107V60.8439H25.5046C25.6212 60.8411 25.7342 60.8841 25.8198 60.9638C25.8618 61.0063 25.8947 61.057 25.9164 61.1128C25.9381 61.1686 25.9481 61.2283 25.9459 61.2882V62.1487C25.9481 62.2086 25.9381 62.2683 25.9164 62.3241C25.8947 62.3799 25.8618 62.4306 25.8198 62.4731C25.7784 62.5139 25.7289 62.5456 25.6746 62.5662C25.6204 62.5869 25.5625 62.596 25.5046 62.593H23.4936V65.2589C23.4657 65.6692 23.5879 66.0755 23.837 66.4015C23.9493 66.5374 24.0911 66.6456 24.2514 66.7177C24.4117 66.7898 24.5863 66.8239 24.7618 66.8176Z" fill="#84C551"/>
<path d="M29.2535 57.9666C29.8701 57.9666 30.1854 58.1922 30.1854 58.6718C30.1793 58.8254 30.1436 58.9763 30.0803 59.1162L29.2185 61.3096C29.1229 61.5431 28.9683 61.7473 28.77 61.902C28.5719 62.0626 28.3237 62.1475 28.0694 62.1418H27.7821C27.4809 62.1418 27.2916 62.0783 27.2076 61.9514C27.1322 61.8334 27.0909 61.6966 27.0884 61.5564C27.0812 61.4249 27.0812 61.293 27.0884 61.1615L27.5159 58.8199C27.5687 58.5783 27.7117 58.3663 27.9152 58.2275C28.1171 58.0739 28.3628 57.9898 28.6159 57.9877L29.2535 57.9666Z" fill="#84C551"/>
<path d="M31.2148 62.6284C31.2148 61.0532 32.4714 60.268 34.9844 60.2727C37.6189 60.2727 38.9432 60.978 38.9432 62.3886C38.9441 62.4472 38.9334 62.5054 38.9116 62.5597C38.8897 62.614 38.8572 62.6634 38.816 62.7049C38.7748 62.7463 38.7258 62.779 38.6718 62.801C38.6178 62.823 38.56 62.8338 38.5018 62.8329H37.4227C37.2529 62.834 37.0853 62.795 36.9332 62.7191C36.7811 62.6431 36.6488 62.5323 36.5469 62.3956C36.3597 62.2234 36.137 62.095 35.8948 62.0194C35.6526 61.9438 35.3967 61.923 35.1456 61.9583C34.2113 61.9583 33.7442 62.1934 33.7442 62.6636C33.7442 62.8823 33.9334 63.0586 34.3048 63.2067C34.7592 63.3771 35.2283 63.5046 35.7061 63.5875C36.2476 63.6988 36.7832 63.8377 37.3107 64.0036C37.8355 64.1573 38.316 64.4355 38.712 64.8147C38.8963 64.9988 39.041 65.2189 39.1374 65.4615C39.2338 65.7041 39.2798 65.9641 39.2725 66.2253C39.2725 67.791 37.9459 68.5738 35.2928 68.5738C32.6396 68.5738 31.3153 67.8686 31.32 66.458C31.318 66.3982 31.3283 66.3386 31.3502 66.283C31.372 66.2273 31.4049 66.1768 31.447 66.1345C31.489 66.0922 31.5392 66.059 31.5945 66.037C31.6498 66.015 31.709 66.0047 31.7684 66.0066H32.8474C33.0177 66.0069 33.1856 66.0472 33.3376 66.1244C33.4897 66.2015 33.6218 66.3133 33.7233 66.4509C33.9116 66.6215 34.1343 66.7489 34.3762 66.8244C34.6181 66.8999 34.8735 66.9217 35.1246 66.8883C36.2247 66.8883 36.7782 66.6555 36.7782 66.1829C36.7782 65.9643 36.589 65.7809 36.2176 65.6399C35.7617 65.4708 35.2931 65.3387 34.8163 65.2449C34.2698 65.1321 33.7373 64.991 33.2048 64.8288C32.6929 64.6738 32.2263 64.3954 31.8455 64.0177C31.6494 63.8436 31.492 63.63 31.3833 63.3906C31.2747 63.1512 31.2173 62.8915 31.2148 62.6284Z" fill="#84C551"/>
<path d="M46.259 66.7895C45.9122 66.4224 45.6437 65.9877 45.4702 65.5122C45.2967 65.0367 45.2217 64.5305 45.25 64.0248C45.2226 63.5076 45.3117 62.991 45.5107 62.5135C45.7097 62.0359 46.0134 61.6099 46.3991 61.2671C47.3416 60.5466 48.5112 60.1933 49.6921 60.2727C50.4247 60.2784 51.1547 60.3587 51.8712 60.5125C52.4632 60.6139 53.0355 60.8091 53.5668 61.0908V67.8262C53.6016 68.2828 53.5231 68.741 53.3385 69.1595C53.1538 69.5781 52.8687 69.9439 52.5088 70.2241C51.6192 70.7912 50.5751 71.0626 49.524 70.9999C48.5154 71.0477 47.5081 70.8819 46.5672 70.5132C46.2519 70.3881 45.9828 70.1676 45.7971 69.8822C45.6114 69.5967 45.5182 69.2603 45.5302 68.9193C45.528 68.8594 45.5381 68.7998 45.5598 68.7439C45.5815 68.6881 45.6143 68.6374 45.6563 68.5949C45.6988 68.553 45.7492 68.5201 45.8046 68.4983C45.86 68.4765 45.9192 68.4662 45.9787 68.468H47.0576C47.2163 68.463 47.374 68.4947 47.5186 68.5607C47.6631 68.6268 47.7907 68.7253 47.8915 68.8488C48.0728 69.0327 48.2929 69.1732 48.5354 69.2599C48.778 69.3466 49.0369 69.3772 49.2928 69.3496C49.7847 69.4029 50.2798 69.2832 50.6941 69.011C50.8349 68.8506 50.9406 68.6624 51.0046 68.4583C51.0686 68.2542 51.0893 68.0389 51.0655 67.8262V67.4877C50.3612 67.6765 49.6362 67.7759 48.9074 67.7838C48.4223 67.8052 47.9378 67.7282 47.4828 67.5574C47.0278 67.3866 46.6117 67.1254 46.259 66.7895ZM49.545 62.0359C48.4029 62.0359 47.8284 62.6918 47.8284 64.0248C47.8284 65.3577 48.389 66.0207 49.503 66.0207C50.0308 66.0128 50.5556 65.9394 51.0655 65.8021V62.1981C50.5684 62.0744 50.0568 62.0198 49.545 62.0359Z" fill="#84C551"/>
<path d="M60.8252 62.2687L59.7111 62.2264C59.3397 62.2529 58.9791 62.3638 58.6563 62.5507C58.3335 62.7376 58.0569 62.9956 57.8473 63.3054V67.9532C57.849 68.0119 57.8387 68.0704 57.817 68.125C57.7953 68.1796 57.7627 68.2292 57.7213 68.2706C57.6798 68.3114 57.6303 68.3431 57.576 68.3637C57.5218 68.3844 57.4638 68.3934 57.4059 68.3904H55.7874C55.7294 68.3948 55.671 68.3863 55.6165 68.3656C55.5621 68.3449 55.5128 68.3125 55.4721 68.2706C55.4306 68.2292 55.3981 68.1796 55.3764 68.125C55.3547 68.0704 55.3444 68.0119 55.346 67.9532V60.9004C55.3438 60.8406 55.3539 60.7808 55.3756 60.725C55.3973 60.6692 55.4301 60.6185 55.4721 60.576C55.5132 60.5343 55.5625 60.5015 55.6167 60.4797C55.6709 60.4578 55.729 60.4474 55.7874 60.4491H57.4059C57.4643 60.447 57.5226 60.4572 57.5769 60.4791C57.6312 60.5009 57.6804 60.5339 57.7213 60.576C57.7632 60.6185 57.796 60.6692 57.8177 60.725C57.8394 60.7808 57.8495 60.8406 57.8473 60.9004V61.3588C58.2766 61.0307 58.748 60.7627 59.2487 60.5619C59.8246 60.371 60.4293 60.2827 61.0354 60.3009C61.1548 60.3011 61.2698 60.3464 61.3577 60.4279C61.3985 60.4698 61.4306 60.5194 61.4523 60.5739C61.4739 60.6284 61.4847 60.6866 61.4838 60.7453V61.8526C61.4868 61.9115 61.477 61.9703 61.4553 62.0251C61.4335 62.0799 61.4002 62.1293 61.3577 62.1699C61.3152 62.2119 61.2648 62.2447 61.2094 62.2665C61.1541 62.2883 61.0948 62.2987 61.0354 62.2969L60.8252 62.2687Z" fill="#84C551"/>
<path d="M63.2148 67.4948C62.4867 66.6337 62.0869 65.5399 62.0869 64.4092C62.0869 63.2784 62.4867 62.1846 63.2148 61.3236C64.1589 60.64 65.2924 60.2722 66.4554 60.2722C67.6183 60.2722 68.7519 60.64 69.696 61.3236C70.424 62.1846 70.8238 63.2784 70.8238 64.4092C70.8238 65.5399 70.424 66.6337 69.696 67.4948C68.7487 68.1704 67.6163 68.5332 66.4554 68.5332C65.2944 68.5332 64.1621 68.1704 63.2148 67.4948ZM65.0435 62.5155C64.7487 63.1001 64.5951 63.7465 64.5951 64.4021C64.5951 65.0577 64.7487 65.7041 65.0435 66.2887C65.4153 66.6626 65.9193 66.8725 66.4449 66.8725C66.9704 66.8725 67.4744 66.6626 67.8462 66.2887C68.141 65.7041 68.2946 65.0577 68.2946 64.4021C68.2946 63.7465 68.141 63.1001 67.8462 62.5155C67.4709 62.1484 66.9682 61.9431 66.4449 61.9431C65.9215 61.9431 65.4188 62.1484 65.0435 62.5155Z" fill="#84C551"/>
<path d="M71.405 61.0626C71.3696 60.9598 71.3461 60.8533 71.335 60.7452C71.335 60.5336 71.4611 60.4278 71.6993 60.4208H73.0446C73.2596 60.4183 73.4709 60.477 73.6542 60.59C73.8255 60.7013 73.954 60.8679 74.0186 61.0626L75.2026 64.9839L76.3728 61.0626C76.4125 60.8742 76.5174 60.7062 76.6689 60.5887C76.8204 60.4711 77.0085 60.4116 77.1995 60.4208H78.4748C78.6665 60.4086 78.856 60.467 79.0082 60.585C79.1603 60.7031 79.2645 60.8728 79.3015 61.0626L80.4717 64.9839L81.6558 61.0626C81.7206 60.866 81.8521 60.6988 82.0271 60.59C82.2096 60.4752 82.4215 60.4163 82.6367 60.4208H83.975C84.2132 60.4208 84.3323 60.5336 84.3394 60.7452C84.3361 60.8538 84.3147 60.961 84.2762 61.0626L82.0832 67.7557C82.0211 67.9477 81.8948 68.1121 81.7259 68.2211C81.5592 68.3309 81.3645 68.3896 81.1653 68.3903H80.1494C79.947 68.3898 79.7493 68.3284 79.5818 68.214C79.4143 68.1083 79.2901 67.9457 79.2315 67.7557L77.8301 63.4182L76.4288 67.7557C76.3674 67.9462 76.2407 68.1086 76.0715 68.214C75.9069 68.329 75.7113 68.3906 75.511 68.3903H74.509C74.312 68.3899 74.1194 68.331 73.9554 68.2211C73.7847 68.1124 73.656 67.9482 73.5911 67.7557L71.405 61.0626Z" fill="#84C551"/>
<path d="M94.3243 66.8176L95.3192 66.7259H95.5855C95.6449 66.7241 95.7042 66.7344 95.7595 66.7563C95.8149 66.7781 95.8654 66.8109 95.9078 66.8529C95.9493 66.8943 95.9819 66.9438 96.0036 66.9984C96.0252 67.0529 96.0356 67.1114 96.0339 67.1702V67.953C96.0332 68.0063 96.0217 68.0588 96 68.1073C95.9784 68.1559 95.947 68.1994 95.9078 68.2352C95.821 68.3222 95.7073 68.3769 95.5855 68.3903C94.9493 68.5009 94.3041 68.5506 93.6587 68.5385C91.594 68.5385 90.5594 67.4476 90.5548 65.266V58.4107C90.5527 58.2901 90.598 58.1735 90.6808 58.0863C90.7223 58.0455 90.7718 58.0138 90.8261 57.9932C90.8803 57.9725 90.9382 57.9634 90.9962 57.9664H92.6147C92.6726 57.9634 92.7305 57.9725 92.7848 57.9932C92.8391 58.0138 92.8885 58.0455 92.93 58.0863C93.0128 58.1735 93.0581 58.2901 93.0561 58.4107V60.8439H95.074C95.1882 60.8429 95.2985 60.8858 95.3823 60.9638C95.4253 61.0059 95.4592 61.0564 95.4821 61.1122C95.505 61.168 95.5163 61.2279 95.5154 61.2882V62.1487C95.5163 62.209 95.505 62.2689 95.4821 62.3247C95.4592 62.3804 95.4253 62.4309 95.3823 62.4731C95.3417 62.513 95.2934 62.5442 95.2404 62.5648C95.1874 62.5854 95.1308 62.595 95.074 62.593H93.0561V65.2589C93.0282 65.6692 93.1503 66.0755 93.3994 66.4015C93.5117 66.5374 93.6536 66.6456 93.8139 66.7177C93.9742 66.7898 94.1488 66.8239 94.3243 66.8176Z" fill="#84C551"/>
<path d="M97.8272 67.4948C97.0991 66.6337 96.6992 65.5399 96.6992 64.4092C96.6992 63.2784 97.0991 62.1846 97.8272 61.3236C98.7713 60.64 99.9048 60.2722 101.068 60.2722C102.231 60.2722 103.364 60.64 104.308 61.3236C105.036 62.1846 105.436 63.2784 105.436 64.4092C105.436 65.5399 105.036 66.6337 104.308 67.4948C103.361 68.1704 102.229 68.5332 101.068 68.5332C99.9068 68.5332 98.7745 68.1704 97.8272 67.4948ZM99.6559 62.5155C99.3611 63.1001 99.2075 63.7465 99.2075 64.4021C99.2075 65.0577 99.3611 65.7041 99.6559 66.2887C99.8235 66.4958 100.039 66.6585 100.283 66.763C100.527 66.8674 100.793 66.9105 101.057 66.8882C101.321 66.9087 101.587 66.8648 101.831 66.7605C102.074 66.6562 102.29 66.4944 102.459 66.2887C102.758 65.7055 102.914 65.0585 102.914 64.4021C102.914 63.7457 102.758 63.0988 102.459 62.5155C102.288 62.3133 102.071 62.1549 101.828 62.0531C101.584 61.9513 101.32 61.9092 101.057 61.9302C100.794 61.9069 100.529 61.9479 100.285 62.0499C100.041 62.1518 99.8254 62.3115 99.6559 62.5155Z" fill="#84C551"/>
<path d="M107.321 66.7894C106.975 66.4223 106.706 65.9876 106.533 65.5121C106.359 65.0366 106.284 64.5304 106.312 64.0247C106.285 63.5076 106.374 62.991 106.573 62.5134C106.772 62.0359 107.076 61.6098 107.462 61.2671C108.406 60.5449 109.578 60.1916 110.762 60.2726C111.492 60.2787 112.22 60.3591 112.934 60.5124C113.528 60.6153 114.102 60.8104 114.636 61.0908V67.8261C114.67 68.2834 114.591 68.7419 114.405 69.1605C114.219 69.5791 113.932 69.9446 113.571 70.2241C112.684 70.7902 111.642 71.0615 110.594 70.9999C109.585 71.0489 108.577 70.883 107.637 70.5132C107.321 70.3889 107.051 70.1686 106.865 69.883C106.679 69.5973 106.587 69.2605 106.6 68.9193C106.598 68.8594 106.608 68.7999 106.63 68.7442C106.652 68.6886 106.685 68.638 106.727 68.5957C106.769 68.5534 106.819 68.5202 106.874 68.4983C106.93 68.4763 106.989 68.466 107.048 68.468H108.141C108.3 68.4619 108.458 68.4931 108.603 68.5592C108.748 68.6253 108.875 68.7244 108.975 68.8487C109.157 69.0318 109.377 69.1718 109.619 69.2584C109.862 69.345 110.12 69.3762 110.376 69.3495C110.868 69.4064 111.365 69.2865 111.778 69.0109C111.92 68.8511 112.027 68.6631 112.092 68.459C112.157 68.2549 112.179 68.0393 112.156 67.8261V67.4876C111.449 67.6765 110.722 67.7759 109.991 67.7838C109.502 67.8081 109.014 67.7325 108.555 67.5616C108.096 67.3907 107.677 67.128 107.321 66.7894ZM110.608 62.0358C109.465 62.0358 108.898 62.6917 108.898 64.0247C108.898 65.3577 109.451 66.0206 110.565 66.0206C111.096 66.0129 111.623 65.9394 112.135 65.802V62.198C111.635 62.0744 111.122 62.0199 110.608 62.0358Z" fill="#84C551"/>
<path d="M117.075 67.4805C116.354 66.6244 115.958 65.5384 115.958 64.4161C115.958 63.2938 116.354 62.2079 117.075 61.3517C117.964 60.6609 119.055 60.2861 120.179 60.2861C121.302 60.2861 122.393 60.6609 123.282 61.3517C123.668 61.742 123.967 62.2105 124.159 62.7261C124.352 63.2417 124.432 63.7926 124.397 64.3421V64.7581C124.399 64.8788 124.353 64.9954 124.27 65.0826C124.228 65.1249 124.178 65.1579 124.122 65.1798C124.067 65.2016 124.008 65.2117 123.948 65.2095H118.504C118.509 65.691 118.691 66.1536 119.015 66.5073C119.415 66.816 119.915 66.962 120.417 66.9163C120.654 66.9446 120.894 66.9202 121.12 66.8447C121.347 66.7691 121.554 66.6442 121.727 66.479C121.831 66.3438 121.963 66.2336 122.115 66.1567C122.266 66.0798 122.433 66.0381 122.603 66.0347H123.682C123.741 66.0327 123.801 66.0431 123.856 66.0651C123.911 66.0871 123.961 66.1202 124.003 66.1625C124.045 66.2049 124.078 66.2554 124.1 66.3111C124.122 66.3667 124.132 66.4263 124.13 66.4861C124.13 67.8966 122.813 68.6019 120.179 68.6019C119.038 68.6518 117.923 68.2492 117.075 67.4805ZM118.476 63.6438H121.839C121.79 62.5013 121.23 61.93 120.165 61.93C119.1 61.93 118.56 62.5013 118.497 63.6438H118.476Z" fill="#84C551"/>
<path d="M129.504 66.8176L130.492 66.7259H130.765C130.885 66.7239 131.001 66.7695 131.088 66.8529C131.129 66.8943 131.162 66.9438 131.183 66.9984C131.205 67.0529 131.215 67.1114 131.214 67.1702V67.953C131.213 68.0063 131.201 68.0588 131.18 68.1073C131.158 68.1559 131.127 68.1994 131.088 68.2352C131 68.3209 130.887 68.3754 130.765 68.3903C130.129 68.5006 129.484 68.5503 128.838 68.5385C126.769 68.5385 125.734 67.4476 125.734 65.266V58.4107C125.732 58.2901 125.778 58.1735 125.861 58.0863C125.902 58.0455 125.951 58.0138 126.006 57.9932C126.06 57.9725 126.118 57.9634 126.176 57.9664H127.794C127.852 57.9634 127.91 57.9725 127.964 57.9932C128.019 58.0138 128.068 58.0455 128.11 58.0863C128.193 58.1735 128.238 58.2901 128.236 58.4107V60.8439H130.247C130.363 60.8411 130.476 60.8841 130.562 60.9638C130.604 61.0063 130.637 61.057 130.659 61.1128C130.68 61.1686 130.69 61.2283 130.688 61.2882V62.1487C130.69 62.2086 130.68 62.2683 130.659 62.3241C130.637 62.3799 130.604 62.4306 130.562 62.4731C130.521 62.5139 130.471 62.5456 130.417 62.5662C130.363 62.5869 130.305 62.596 130.247 62.593H128.236V65.2589C128.208 65.6692 128.33 66.0755 128.579 66.4015C128.692 66.5374 128.833 66.6456 128.994 66.7177C129.154 66.7898 129.329 66.824 129.504 66.8176Z" fill="#84C551"/>
<path d="M132.398 67.953V58.4107C132.396 58.2901 132.441 58.1735 132.524 58.0863C132.565 58.0455 132.615 58.0138 132.669 57.9932C132.723 57.9725 132.781 57.9634 132.839 57.9664H134.458C134.516 57.9634 134.573 57.9725 134.628 57.9932C134.682 58.0138 134.731 58.0455 134.773 58.0863C134.856 58.1735 134.901 58.2901 134.899 58.4107V61.3305C135.624 60.6649 136.566 60.2888 137.548 60.2726C137.967 60.2563 138.385 60.3247 138.777 60.4737C139.169 60.6227 139.528 60.8493 139.832 61.1401C140.149 61.4965 140.391 61.9142 140.543 62.3676C140.694 62.8211 140.753 63.3009 140.715 63.7779V67.953C140.716 68.0107 140.706 68.0682 140.684 68.1216C140.662 68.175 140.63 68.2233 140.589 68.2634C140.546 68.3057 140.496 68.3388 140.44 68.3606C140.385 68.3824 140.326 68.3925 140.266 68.3903H138.655C138.596 68.392 138.538 68.3816 138.484 68.3597C138.43 68.3379 138.38 68.3051 138.339 68.2634C138.298 68.2233 138.266 68.175 138.244 68.1216C138.222 68.0682 138.212 68.0107 138.213 67.953V63.7779C138.213 62.6142 137.751 62.0358 136.812 62.0358C136.437 62.0734 136.074 62.1849 135.742 62.3641C135.41 62.5432 135.116 62.7863 134.878 63.0796V67.953C134.88 68.0107 134.869 68.0682 134.847 68.1216C134.826 68.175 134.793 68.2233 134.752 68.2634C134.711 68.3051 134.662 68.3379 134.607 68.3597C134.553 68.3816 134.495 68.392 134.437 68.3903H132.818C132.76 68.392 132.702 68.3816 132.647 68.3597C132.593 68.3379 132.544 68.3051 132.503 68.2634C132.465 68.2215 132.437 68.1725 132.419 68.1191C132.4 68.0658 132.393 68.0092 132.398 67.953Z" fill="#84C551"/>
<path d="M143.175 67.4806C142.455 66.6238 142.061 65.5381 142.061 64.4161C142.061 63.2942 142.455 62.2085 143.175 61.3517C144.027 60.5924 145.143 60.2043 146.279 60.2727C147.408 60.2038 148.519 60.5808 149.376 61.3235C149.762 61.7138 150.061 62.1823 150.253 62.6979C150.445 63.2135 150.526 63.7644 150.49 64.3139V64.73C150.492 64.8506 150.447 64.9672 150.364 65.0544C150.322 65.0967 150.271 65.1298 150.216 65.1516C150.16 65.1734 150.101 65.1836 150.042 65.1814H144.576C144.578 65.6621 144.758 66.1247 145.081 66.4791C145.481 66.7866 145.981 66.9325 146.482 66.8882C146.72 66.9157 146.961 66.8908 147.189 66.8153C147.416 66.7398 147.624 66.6154 147.799 66.4509C147.902 66.3145 148.034 66.2035 148.186 66.1265C148.338 66.0495 148.505 66.0084 148.675 66.0065H149.747C149.807 66.0043 149.866 66.0145 149.921 66.0363C149.977 66.0582 150.027 66.0912 150.07 66.1335C150.111 66.1762 150.144 66.227 150.165 66.2827C150.187 66.3385 150.197 66.3981 150.196 66.4579C150.196 67.8685 148.878 68.5737 146.244 68.5737C145.119 68.622 144.019 68.2303 143.175 67.4806ZM144.576 63.6439H147.933C147.883 62.5013 147.33 61.9301 146.258 61.9301C145.186 61.9301 144.639 62.5013 144.576 63.6439Z" fill="#84C551"/>
<path d="M157.293 62.2688L156.179 62.2265C155.808 62.2536 155.447 62.3646 155.125 62.5515C154.802 62.7383 154.525 62.9961 154.315 63.3055V67.9533C154.317 68.012 154.307 68.0705 154.285 68.1251C154.263 68.1797 154.231 68.2293 154.189 68.2707C154.148 68.3115 154.098 68.3432 154.044 68.3638C153.99 68.3845 153.932 68.3935 153.874 68.3905H152.284C152.225 68.3949 152.167 68.3865 152.113 68.3657C152.058 68.345 152.009 68.3126 151.968 68.2707C151.927 68.2293 151.894 68.1797 151.872 68.1251C151.851 68.0705 151.84 68.012 151.842 67.9533V60.9006C151.84 60.8407 151.85 60.781 151.872 60.7251C151.893 60.6693 151.926 60.6186 151.968 60.5761C152.009 60.5344 152.059 60.5016 152.113 60.4798C152.167 60.4579 152.225 60.4475 152.284 60.4492H153.902C153.961 60.4462 154.019 60.456 154.073 60.4779C154.128 60.4998 154.177 60.5333 154.217 60.5761C154.259 60.6186 154.292 60.6693 154.314 60.7251C154.336 60.781 154.346 60.8407 154.343 60.9006V61.359C154.773 61.0308 155.244 60.7628 155.745 60.562C156.321 60.3717 156.925 60.2833 157.531 60.301C157.651 60.3012 157.766 60.3465 157.854 60.428C157.895 60.4699 157.927 60.5195 157.948 60.574C157.97 60.6285 157.981 60.6867 157.98 60.7454V61.8527C157.983 61.9116 157.973 61.9705 157.951 62.0252C157.93 62.08 157.896 62.1294 157.854 62.17C157.811 62.212 157.761 62.2448 157.706 62.2666C157.65 62.2885 157.591 62.2988 157.531 62.297L157.293 62.2688Z" fill="#84C551"/>
<path d="M54.7438 36.6179V36.6602L52.5156 45.1729C52.4429 45.5043 52.403 45.8421 52.3965 46.1814C52.4309 46.6727 52.6255 47.1388 52.95 47.5073C53.1781 47.7762 53.4673 47.9859 53.7929 48.1185C54.1186 48.251 54.4712 48.3027 54.8208 48.269H61.4141C62.3149 48.2572 63.1856 47.9418 63.8874 47.3733C64.6415 46.8217 65.1736 46.0157 65.3868 45.1023L67.615 36.639V36.6038L54.7438 36.6179Z" fill="#21603F"/>
<path d="M101.611 0.035171C101.45 0.021154 101.289 0.021154 101.128 0.035171H88.7821H81.327C74.3203 0.28907 69.0537 2.02405 65.527 5.2401C65.3589 5.38821 65.1977 5.53629 65.0435 5.6985C63.0158 7.7462 61.5858 10.3152 60.9096 13.1251L54.7578 36.6107H75.0771C82.0511 36.3568 87.3014 34.6359 90.828 31.4481C90.9962 31.3 91.1573 31.1448 91.3185 30.9896C93.3781 28.9385 94.8332 26.3534 95.5225 23.5208L101.674 0.035171H101.611ZM83.3519 20.3682C82.9398 21.9755 82.0991 23.4388 80.9206 24.5999C80.7595 24.755 80.5913 24.9102 80.4162 25.0583L80.1219 25.291C78.7505 26.3416 77.1044 26.9666 75.3854 27.0895H70.0953L73.0311 16.2847C73.4342 14.6832 74.2598 13.2211 75.4204 12.053C75.5816 11.8979 75.7497 11.7427 75.9249 11.5946L76.2612 11.3196C77.6325 10.269 79.2786 9.64393 80.9977 9.52108H86.2947L83.3519 20.3682Z" fill="#84C551"/>
<path d="M98.6471 23.6477C97.6245 28.004 95.0331 31.8238 91.3742 34.3679V36.5895V45.0528C91.3585 45.4723 91.429 45.8906 91.5811 46.2814C91.7332 46.6723 91.9638 47.0274 92.2583 47.3245C92.5529 47.6217 92.9051 47.8546 93.2931 48.0086C93.6811 48.1625 94.0965 48.2344 94.5133 48.2195H100.819C101.233 48.226 101.644 48.1502 102.029 47.9965C102.414 47.8428 102.765 47.6142 103.061 47.3238C103.362 47.0438 103.6 46.703 103.761 46.3238C103.921 45.9446 104.001 45.5355 103.993 45.1234V3.24414L98.6471 23.6477Z" fill="#1F1B1C"/>
</g>
<defs>
<clipPath id="clip0_7703_1012">
<rect width="158" height="71" fill="white"/>
</clipPath>
</defs>
</svg>
