<svg width="20" height="20" viewBox="0 0 20 20" fill="none" xmlns="http://www.w3.org/2000/svg">
<path fill-rule="evenodd" clip-rule="evenodd" d="M3.33268 13.3334V15.0001C3.33268 16.8417 4.82518 18.3334 6.66602 18.3334H14.9993C16.841 18.3334 18.3327 16.8417 18.3327 15.0001C18.3327 12.2259 18.3327 7.77508 18.3327 5.00008C18.3327 3.15925 16.841 1.66675 14.9993 1.66675C12.6168 1.66675 9.04935 1.66675 6.66602 1.66675C4.82518 1.66675 3.33268 3.15925 3.33268 5.00008V6.66675C3.33268 7.12675 3.70602 7.50008 4.16602 7.50008C4.62602 7.50008 4.99935 7.12675 4.99935 6.66675C4.99935 6.66675 4.99935 5.88591 4.99935 5.00008C4.99935 4.08008 5.74602 3.33341 6.66602 3.33341H14.9993C15.9202 3.33341 16.666 4.08008 16.666 5.00008V15.0001C16.666 15.9209 15.9202 16.6667 14.9993 16.6667C12.6168 16.6667 9.04935 16.6667 6.66602 16.6667C5.74602 16.6667 4.99935 15.9209 4.99935 15.0001C4.99935 14.1151 4.99935 13.3334 4.99935 13.3334C4.99935 12.8742 4.62602 12.5001 4.16602 12.5001C3.70602 12.5001 3.33268 12.8742 3.33268 13.3334ZM9.65435 9.16675L8.57685 8.09008C8.25185 7.76424 8.25185 7.23675 8.57685 6.91091C8.90268 6.58591 9.43018 6.58591 9.75518 6.91091L12.2552 9.41091C12.581 9.73675 12.581 10.2642 12.2552 10.5901L9.75518 13.0901C9.43018 13.4151 8.90268 13.4151 8.57685 13.0901C8.25185 12.7642 8.25185 12.2367 8.57685 11.9109L9.65435 10.8334H2.49935C2.03935 10.8334 1.66602 10.4601 1.66602 10.0001C1.66602 9.54092 2.03935 9.16675 2.49935 9.16675H9.65435Z" fill="#84BE51"/>
</svg>
