<svg width="24" height="24" viewBox="0 0 24 24" fill="none" xmlns="http://www.w3.org/2000/svg">
<g clip-path="url(#clip0_91_3172)">
<path d="M10.6344 5.45269C10.8451 5.31933 10.9078 5.04038 10.7745 4.82965C9.57095 2.92798 8.28035 1.92881 6.93183 1.92881C5.93472 1.92881 4.95866 2.48564 4.03013 3.55046C3.25692 4.43718 2.52923 5.65445 1.86548 7.16528C0.709886 9.79565 -0.1 13.0311 -0.1 15.0392C-0.1 18.9166 3.05436 22.071 6.93183 22.071C7.8284 22.071 8.68641 21.9023 9.47583 21.5949C10.2626 21.8833 11.0796 22.0275 11.8953 22.0275C12.8734 22.0275 13.849 21.8207 14.7676 21.4091C16.1729 20.7797 18.1117 19.3738 19.8306 17.7429L19.8306 17.7429C20.0115 17.5712 20.019 17.2854 19.8474 17.1045L19.8474 17.1045L10.5809 5.36819M10.6344 5.45269L10.5809 5.36819M10.6344 5.45269C10.6344 5.45267 10.6344 5.45266 10.6344 5.45265L10.5809 5.36819M10.6344 5.45269C10.4237 5.58617 10.1447 5.52336 10.0113 5.31264L10.0958 5.25915C10.1997 5.42326 10.4169 5.47211 10.5809 5.36819M14.3983 20.5849L14.3983 20.5848C15.6873 20.0077 17.5771 18.636 19.2089 17.0878C19.2089 17.0878 19.2089 17.0878 19.2089 17.0878L19.2778 17.1603L14.3983 20.5849ZM14.3983 20.5849C13.2097 21.1175 11.9131 21.2562 10.6627 20.9972M14.3983 20.5849L10.6627 20.9972M10.6627 20.9972C11.2041 20.657 11.6959 20.2452 12.1251 19.7751C14.9762 19.3967 17.0152 17.3472 17.1026 17.2582L17.0313 17.1881L17.1027 17.2581C17.2773 17.0802 17.2747 16.7942 17.0967 16.6196L17.0967 16.6196C16.9187 16.4449 16.6328 16.4475 16.4581 16.6255L10.6627 20.9972Z" fill="#84BE51" stroke="#84BE51" stroke-width="0.2"/>
<path d="M11.5422 6.19443L11.5422 6.19445C11.7713 6.65009 11.9921 7.13665 12.2009 7.643C14.4289 7.20398 16.8832 7.04475 18.8432 7.21859C21.4898 7.45327 23.2478 8.27162 23.8569 9.6311M11.5422 6.19443L23.7657 9.67198M11.5422 6.19443C11.4301 5.97166 11.1588 5.88179 10.9359 5.99388L11.5422 6.19443ZM23.8569 9.6311L23.7657 9.67198M23.8569 9.6311C23.8569 9.63109 23.8569 9.63109 23.8569 9.63109L23.7657 9.67198M23.8569 9.6311C24.3766 10.7907 24.0015 12.1551 23.3256 13.4147C22.6473 14.6789 21.6516 15.865 20.8828 16.6857M23.7657 9.67198C24.7653 11.9025 22.3428 14.9809 20.8098 16.6174M20.8828 16.6857L20.8098 16.6174M20.8828 16.6857C20.8828 16.6857 20.8828 16.6857 20.8828 16.6857L20.8098 16.6174M20.8828 16.6857C20.7939 16.7806 20.6734 16.8286 20.5531 16.8286C20.4426 16.8286 20.3316 16.7882 20.2445 16.7066L20.2445 16.7066C20.0625 16.5361 20.0531 16.2503 20.2237 16.0683M20.8098 16.6174L20.0212 9.23312C19.8845 9.20084 16.9813 8.54713 13.0179 9.92063C12.8696 9.44046 12.7079 8.96375 12.5352 8.49798C14.6418 8.09766 16.934 7.95594 18.7635 8.11812C19.5866 8.1911 20.5146 8.34065 21.3088 8.6358C22.1055 8.93185 22.7492 9.36744 23.0328 10.0003L23.0328 10.0003C23.3197 10.6406 23.2271 11.5096 22.7496 12.5527C22.2735 13.5931 21.4221 14.789 20.2237 16.0683M20.2237 16.0683L20.2966 16.1367M20.2237 16.0683C20.2237 16.0683 20.2237 16.0683 20.2237 16.0683L20.2966 16.1367M20.2966 16.1367C22.702 13.5689 23.7326 11.3173 23.1241 9.95942L20.3129 16.6336C20.1712 16.5009 20.1639 16.2784 20.2966 16.1367ZM13.7077 12.6848L13.7077 12.6848C13.7534 12.9299 13.5917 13.1657 13.3466 13.2115C13.3466 13.2115 13.3466 13.2115 13.3466 13.2115L13.7077 12.6848ZM13.7077 12.6848C13.5924 12.0668 13.4444 11.429 13.2701 10.7891M13.7077 12.6848L13.2701 10.7891M13.2701 10.7891C15.1244 10.1416 16.7452 9.96891 17.9104 9.95989C18.5021 9.9553 18.9762 9.99293 19.3034 10.032C19.467 10.0515 19.5939 10.0713 19.6804 10.0864C19.7236 10.094 19.7568 10.1004 19.7794 10.1049L19.8053 10.1102L19.8121 10.1117C19.8138 10.1121 19.8146 10.1123 19.8146 10.1123L19.837 10.0148M13.2701 10.7891L20.2598 9.75327C20.2153 9.94222 20.0259 10.0595 19.837 10.0148M19.837 10.0148L19.814 10.1121C20.0568 10.1695 20.3 10.0189 20.3572 9.7762M19.837 10.0148L20.3572 9.7762M20.3572 9.7762C20.4144 9.53344 20.2639 9.29035 20.0212 9.23313L20.3572 9.7762ZM12.8198 12.8504L12.9181 12.832L10.9359 5.9939C10.713 6.10591 10.6233 6.37739 10.7353 6.60015C11.6492 8.41742 12.4289 10.7549 12.8198 12.8504Z" fill="#84BE51" stroke="#84BE51" stroke-width="0.2"/>
<path d="M18.4885 12.8792L18.4885 12.8792C18.7123 12.7692 18.9829 12.8615 19.0929 13.0854C19.0929 13.0854 19.0929 13.0854 19.0929 13.0854L18.4885 12.8792ZM18.4885 12.8792L14.3976 14.8898L14.3976 14.8898M18.4885 12.8792L14.3976 14.8898M14.1915 15.4942C14.1915 15.4942 14.1915 15.4942 14.1915 15.4942L14.2812 15.4501L14.1915 15.4942ZM14.1915 15.4942C14.0815 15.2704 14.1738 14.9998 14.3976 14.8898M14.1915 15.4942L14.3976 14.8898M14.7518 15.6106L18.8427 13.6001L14.7518 15.6106Z" fill="#84BE51" stroke="#84BE51" stroke-width="0.2"/>
<path d="M5.63229 5.18199L5.63229 5.18199C5.83026 5.3333 5.86825 5.61633 5.71725 5.81448L5.63771 5.75387M5.63229 5.18199L3.5102 17.4552V17.3552L3.51022 17.4552C3.53944 17.4552 3.5691 17.4524 3.59885 17.4465M5.63229 5.18199C5.43413 5.03056 5.15075 5.0685 4.99934 5.26651L4.99932 5.26653C4.95933 5.31885 4.12461 6.42594 3.46859 8.44219C2.8668 10.2917 2.31013 13.2918 3.06769 17.0919L3.16576 17.0724C2.41215 13.292 2.96617 10.3095 3.56368 8.47313C4.21538 6.47016 5.0438 5.37301 5.07877 5.32726C5.19666 5.17308 5.4173 5.14355 5.57157 5.26144C5.72569 5.37924 5.75527 5.5996 5.63771 5.75387M5.63229 5.18199L4.22185 8.72288C4.83498 6.82308 5.62974 5.76437 5.63771 5.75387M5.63771 5.75387L5.71737 5.81432C5.71738 5.81431 5.71421 5.81851 5.70805 5.82696C5.70196 5.83531 5.69304 5.84771 5.68151 5.86409C5.65846 5.89684 5.62501 5.94553 5.58306 6.00974C5.49914 6.13817 5.38122 6.32867 5.24438 6.578C4.97067 7.0767 4.62138 7.81051 4.31702 8.75359C3.75623 10.4913 3.23657 13.3198 3.95341 16.9153C4.00218 17.1599 3.84341 17.3977 3.59885 17.4465M3.59885 17.4465L3.57929 17.3484L3.5989 17.4465C3.59888 17.4465 3.59886 17.4465 3.59885 17.4465Z" fill="#84BE51" stroke="#84BE51" stroke-width="0.2"/>
<path d="M10.5454 10.9555L10.5455 10.9555C10.7775 10.8649 11.0392 10.979 11.1301 11.2112M10.5454 10.9555L11.6963 14.1347C11.6963 14.1347 11.6963 14.1347 11.6963 14.1347M10.5454 10.9555C10.3133 11.0462 10.1986 11.3079 10.289 11.5401C10.289 11.5401 10.289 11.5401 10.289 11.5401C10.2892 11.5404 10.2896 11.5416 10.2904 11.5437L10.2943 11.5541C10.2977 11.5633 10.3026 11.5767 10.3088 11.5942C10.3213 11.6292 10.3391 11.6806 10.3605 11.7467C10.4034 11.8791 10.461 12.0706 10.5203 12.3087C10.6391 12.7852 10.7647 13.4469 10.7948 14.1942C10.8739 16.1592 10.2894 17.7562 9.06448 18.9516L9.06448 18.9516C8.88602 19.1257 8.88252 19.4116 9.05672 19.5901L9.05672 19.5901C9.14523 19.6808 9.26269 19.7263 9.37995 19.7263C9.49355 19.7263 9.60752 19.6836 9.69533 19.5979C11.1006 18.2265 11.7902 16.3346 11.6963 14.1347M10.5454 10.9555L11.6963 14.1347M11.1301 11.2112L11.037 11.2476L11.1301 11.2111C11.1301 11.2111 11.1301 11.2111 11.1301 11.2112ZM11.1301 11.2112C11.1524 11.268 11.6263 12.4955 11.6963 14.1347" fill="#84BE51" stroke="#84BE51" stroke-width="0.2"/>
<path d="M8.13707 7.68827L8.13707 7.68827L8.13632 7.68829C7.8871 7.69714 7.69222 7.90637 7.70107 8.15562L7.70107 8.15563L7.86302 12.7111L7.86302 12.7111C7.87175 12.9549 8.07204 13.1466 8.3141 13.1466C8.31976 13.1466 8.3252 13.1465 8.33014 13.1463L8.33035 13.1463C8.57956 13.1375 8.77445 12.9282 8.7656 12.679L8.7656 12.679L8.60365 8.12354C8.60365 8.12354 8.60365 8.12354 8.60365 8.12354C8.59477 7.87364 8.38543 7.68132 8.13707 7.68827Z" fill="#84BE51" stroke="#84BE51" stroke-width="0.2"/>
<path d="M4.54962 18.4054L4.54965 18.4055C4.54963 18.4054 4.55034 18.4062 4.55188 18.4079L4.55817 18.4146L4.58175 18.4394C4.6022 18.4606 4.63191 18.4908 4.66981 18.5276C4.74564 18.6014 4.85401 18.7018 4.98637 18.8106C5.2523 19.0292 5.60982 19.2777 5.9914 19.4165C6.22571 19.5018 6.34663 19.7608 6.26132 19.9952C6.26132 19.9952 6.26132 19.9952 6.26131 19.9952L6.16735 19.961C6.11541 20.1038 5.9806 20.1925 5.83697 20.1925C5.79703 20.1925 5.75649 20.1857 5.71678 20.1712L4.54962 18.4054ZM4.54962 18.4054C4.38244 18.2208 4.09707 18.2063 3.91208 18.3735L4.54962 18.4054ZM3.87981 19.0113C3.91336 19.0484 4.6946 19.9057 5.68251 20.2651L3.87981 19.0113ZM3.91207 18.3735C3.72707 18.5407 3.71261 18.8262 3.87978 19.0112L3.91207 18.3735Z" fill="#84BE51" stroke="#84BE51" stroke-width="0.2"/>
<path d="M8.5127 13.6461C8.26332 13.6461 8.06113 13.8482 8.06113 14.0977V14.1296C8.06113 14.379 8.26332 14.5811 8.5127 14.5811C8.76207 14.5811 8.96426 14.379 8.96426 14.1296V14.0977C8.96426 13.8482 8.76207 13.6461 8.5127 13.6461Z" fill="#84BE51" stroke="#84BE51" stroke-width="0.2"/>
<path d="M7.64648 14.5724C7.39711 14.5724 7.19492 14.7745 7.19492 15.0239V15.0558C7.19492 15.3053 7.39711 15.5074 7.64648 15.5074C7.89586 15.5074 8.09805 15.3053 8.09805 15.0558V15.0239C8.09805 14.7745 7.89592 14.5724 7.64648 14.5724Z" fill="#84BE51" stroke="#84BE51" stroke-width="0.2"/>
<path d="M8.76465 16.1471C8.51527 16.1471 8.31309 16.3492 8.31309 16.5986V16.6306C8.31309 16.8799 8.51526 17.0821 8.76465 17.0821C9.01402 17.0821 9.21621 16.88 9.21621 16.6306V16.5986C9.21621 16.3492 9.01402 16.1471 8.76465 16.1471Z" fill="#84BE51" stroke="#84BE51" stroke-width="0.2"/>
</g>
<defs>
<clipPath id="clip0_91_3172">
<rect width="24" height="24" fill="white"/>
</clipPath>
</defs>
</svg>
